<svg id="Flat_Line" height="512" viewBox="0 0 64 64" width="512" xmlns="http://www.w3.org/2000/svg"><g><g><circle cx="20.8" cy="25" fill="#d3dce5" r="14"/><circle cx="20.8" cy="25" fill="#b8c3d5" r="10"/><circle cx="20.8" cy="25" fill="#536882" r="4"/></g><path d="m54 26v11h-10l-5.45-10.89c-.34-.68-1.03-1.11-1.79-1.11h-31.76c-.55 0-1 .45-1 1v23h56v-23c0-.55-.45-1-1-1h-4c-.55 0-1 .45-1 1z" fill="#ecaf64"/><path d="m4 49h56v2c0 1.1-.9 2-2 2h-52c-1.1 0-2-.9-2-2z" fill="#d88852"/></g><g fill="#1a2c3d"><path d="m59 24h-1.81l-27.79-11.27c-2.44-1.71-5.4-2.73-8.6-2.73-7.93 0-14.43 6.2-14.95 14h-.85c-1.1 0-2 .9-2 2v25c0 1.65 1.35 3 3 3h52c1.65 0 3-1.35 3-3v-25c0-1.1-.9-2-2-2zm-23.25 0c-.19-2.83-1.16-5.45-2.7-7.63l20.47 8.3c-.32.35-.52.82-.52 1.33v10h-8.38l-5.17-10.34c-.51-1.02-1.54-1.66-2.68-1.66h-1.01zm-14.95-12c6.83 0 12.44 5.3 12.95 12h-2c-.51-5.6-5.22-10-10.95-10s-10.44 4.4-10.95 10h-2c.51-6.7 6.12-12 12.95-12zm4.9 12c-.46-2.28-2.48-4-4.9-4s-4.43 1.72-4.9 4h-4.04c.5-4.49 4.32-8 8.94-8s8.44 3.51 8.94 8zm-2.08 0h-5.63c.41-1.16 1.51-2 2.82-2s2.4.84 2.82 2zm-18.62 2h31.76c.38 0 .72.21.89.55l5.45 10.89c.17.34.52.55.89.55h10c.55 0 1-.45 1-1v-11h4v22h-53.99v-22zm54 25c0 .55-.45 1-1 1h-52c-.55 0-1-.45-1-1v-1h54z"/><path d="m22 30h-12c-.55 0-1 .45-1 1s.45 1 1 1h12c.55 0 1-.45 1-1s-.45-1-1-1z"/><path d="m22 35h-12c-.55 0-1 .45-1 1s.45 1 1 1h12c.55 0 1-.45 1-1s-.45-1-1-1z"/></g></svg>